<?xml version="1.0" encoding="UTF-8" standalone="no"?>
<!-- Created with Inkscape (http://www.inkscape.org/) -->

<svg
   width="48"
   height="48"
   viewBox="0 0 12.7 12.7"
   version="1.1"
   id="svg5"
   sodipodi:docname="favicon.svg"
   inkscape:version="1.2.2 (1:1.2.2+202212051550+b0a8486541)"
   xml:space="preserve"
   xmlns:inkscape="http://www.inkscape.org/namespaces/inkscape"
   xmlns:sodipodi="http://sodipodi.sourceforge.net/DTD/sodipodi-0.dtd"
   xmlns="http://www.w3.org/2000/svg"
   xmlns:svg="http://www.w3.org/2000/svg"><sodipodi:namedview
     id="namedview7"
     pagecolor="#ffffff"
     bordercolor="#666666"
     borderopacity="1.0"
     inkscape:showpageshadow="2"
     inkscape:pageopacity="0.0"
     inkscape:pagecheckerboard="0"
     inkscape:deskcolor="#d1d1d1"
     inkscape:document-units="mm"
     showgrid="false"
     inkscape:zoom="10.59046"
     inkscape:cx="30.263086"
     inkscape:cy="19.593106"
     inkscape:current-layer="layer1" /><defs
     id="defs2" /><g
     inkscape:label="Layer 1"
     inkscape:groupmode="layer"
     id="layer1"><rect
       style="fill:#949494;fill-opacity:1;stroke-width:0.254021;stroke-linejoin:bevel;stroke-dasharray:0.528661, 1.05731"
       id="rect1911"
       width="12.7"
       height="12.7"
       x="9.5367433e-08"
       y="9.5367433e-08" /><path
       id="path238"
       style="fill:#000000;stroke-width:0.0248047"
       d="M 6.3241618 0.3012736 C 5.7697798 0.30641777 5.2188206 0.44932142 4.7242594 0.72553711 C 4.0256003 1.1157425 3.437966 1.8279853 3.1941203 2.5802043 C 3.1361141 2.759142 3.100492 2.8891141 3.0778483 3.0313395 L 3.4840251 3.0313395 C 3.6118078 2.4335075 3.8965318 1.9278566 4.345988 1.4996501 C 4.8654163 1.00478 5.480469 0.74104153 6.2068563 0.70124919 C 6.7138358 0.67347622 7.1838592 0.77151924 7.6553467 1.0035563 C 7.9700724 1.1584448 8.1850636 1.3145369 8.4454793 1.5766479 C 8.789107 1.9225118 9.0641745 2.403715 9.1953044 2.8887126 C 9.2096154 2.9416391 9.2212525 2.9871279 9.2304443 3.0313395 L 9.6299032 3.0313395 C 9.6070892 2.8765316 9.5696342 2.749273 9.5032959 2.5512655 C 9.2784021 1.8800043 8.8067521 1.2670997 8.2057007 0.86506348 C 7.919244 0.67345538 7.7626572 0.59470071 7.4496745 0.48575846 C 7.0845463 0.35866564 6.7034758 0.2977539 6.3241618 0.3012736 z M 9.6299032 3.0313395 C 9.6546365 3.1991719 9.6621324 3.399415 9.6691772 3.760494 L 9.6820964 4.4090332 L 9.8252401 4.4369385 C 10.004493 4.4722044 10.14733 4.5731887 10.239168 4.7294271 C 10.306818 4.8445232 10.309636 4.8610322 10.317716 5.2518758 C 10.317863 5.2590295 10.317594 5.2659195 10.317716 5.2730632 L 11.436511 5.2730632 L 11.436511 3.0313395 L 9.6299032 3.0313395 z M 10.317716 5.2730632 L 9.9208415 5.2730632 C 9.9202084 5.3100154 9.9202386 5.3355315 9.9192912 5.3815837 C 9.9114312 5.7626704 9.9034521 5.8332879 9.8536621 5.9588094 C 9.8204931 6.0424317 9.7467551 6.155703 9.6758952 6.231661 L 9.5544556 6.3613688 L 9.5539388 6.2869548 C 9.5534688 6.2460271 9.5637132 6.0897573 9.5771932 5.9396891 C 9.590408 5.7924636 9.6121342 5.4960184 9.625769 5.2730632 L 9.2278605 5.2730632 C 9.1781195 6.0653171 9.0959123 6.854787 9.0051351 7.3023966 C 8.9457452 7.5952406 8.827934 7.9607513 8.7529541 8.0847778 C 8.4640214 8.5627332 7.6791403 9.3919335 7.2253988 9.6986328 L 7.0434977 9.8216227 L 6.3556844 9.8216227 L 5.6678711 9.8216227 L 5.5578003 9.7513428 C 5.1080607 9.4645384 4.3751138 8.7165971 4.0142253 8.1762451 C 3.8226026 7.8893315 3.6999905 7.4354154 3.6013306 6.6466227 C 3.5515621 6.248718 3.5103252 5.7602893 3.4804077 5.2730632 L 3.085083 5.2730632 C 3.0978151 5.4891213 3.1212912 5.8097655 3.1383097 6.0017008 C 3.1558506 6.199518 3.1675147 6.3647235 3.1646647 6.3686035 C 3.1618102 6.372487 3.1029743 6.3139318 3.0339233 6.2383789 C 2.8307745 6.0161018 2.7973232 5.8986761 2.7863932 5.3774495 C 2.7854647 5.3331708 2.7854819 5.3089818 2.7848429 5.2730632 L 2.3879679 5.2730632 C 2.3789846 5.7619836 2.4091755 5.9470141 2.5398966 6.2089233 C 2.6577148 6.4449799 2.8663152 6.6686723 3.0840495 6.7923503 C 3.2072856 6.8623511 3.2276174 6.8847111 3.2411458 6.9644328 C 3.295865 7.2868855 3.3851974 7.6887809 3.4411336 7.8661865 C 3.5291309 8.1452749 3.6180517 8.3150344 3.8095866 8.568986 L 3.9703003 8.7824097 L 3.9723674 9.678479 C 3.9738633 10.43317 3.9682639 10.577912 3.9382609 10.594702 C 3.9186619 10.60567 3.6866752 10.689431 3.4225301 10.780221 C 3.158385 10.871007 2.9173415 10.967981 2.8866455 10.995711 C 2.8036136 11.070717 2.8221352 11.226276 2.8985311 11.285616 C 3.0884988 11.433171 2.9832265 11.352862 3.6044312 11.135754 C 3.880962 11.039106 4.1109711 10.971249 4.1155111 10.984859 C 4.1428641 11.066918 4.3279884 11.313785 4.4286702 11.402405 C 4.6213947 11.572047 4.7366206 11.625833 5.5324788 11.918652 C 5.9495394 12.072101 6.3118377 12.198889 6.3375977 12.200289 C 6.3989896 12.203699 7.8693556 11.670027 8.0175985 11.590507 C 8.1845913 11.500923 8.3693727 11.330508 8.4821696 11.161593 C 8.5365245 11.080205 8.5847566 11.001656 8.5896566 10.986926 C 8.5950606 10.970713 8.8110023 11.034117 9.13691 11.14764 C 9.4329167 11.250748 9.696504 11.334709 9.722404 11.334709 C 9.748306 11.334709 9.7985919 11.311829 9.8345418 11.283549 C 9.9127518 11.222033 9.9234326 11.094945 9.8567627 11.015865 C 9.8291457 10.983104 9.6283771 10.899959 9.3048584 10.787455 C 9.0251857 10.690196 8.7815161 10.603052 8.7638062 10.593152 C 8.7382762 10.578936 8.7319171 10.388794 8.7333171 9.6764119 L 8.7353841 8.7782756 L 8.8960978 8.5674357 C 8.9844477 8.4516421 9.0890518 8.2929096 9.1286418 8.2144857 C 9.2524366 7.9692491 9.3742554 7.5170418 9.4650553 6.9649495 C 9.4780903 6.8856977 9.4980513 6.8633515 9.6211182 6.7939006 C 9.9523029 6.6069919 10.233129 6.2070277 10.296529 5.8311686 C 10.313555 5.7302078 10.321691 5.504977 10.317716 5.2730632 z M 2.3879679 5.2730632 C 2.3881156 5.2650247 2.3877992 5.2585307 2.3879679 5.2503255 C 2.3962243 4.8489519 2.3975442 4.8428919 2.471167 4.725293 C 2.5709787 4.5658624 2.7136264 4.4677825 2.8949137 4.4333211 L 3.0416748 4.4054159 L 3.0416748 3.7961507 C 3.0416889 3.425611 3.0481785 3.2176956 3.0778483 3.0313395 L 1.2696899 3.0313395 L 1.2696899 5.2730632 L 2.3879679 5.2730632 z M 2.7848429 5.2730632 L 3.085083 5.2730632 C 3.0846928 5.2664421 3.083902 5.2567366 3.0835327 5.2503255 C 3.0711128 5.0347075 3.0490644 4.8463707 3.0344401 4.8317464 C 2.9987154 4.7960218 2.8910424 4.8252825 2.8282511 4.8880737 C 2.7850781 4.9312467 2.7794842 4.971833 2.7848429 5.2730632 z M 3.4804077 5.2730632 L 9.2278605 5.2730632 C 9.2654889 4.6737339 9.2845989 4.0727275 9.2738525 3.6173503 C 9.2662781 3.297153 9.2591477 3.169399 9.2304443 3.0313395 L 3.4840251 3.0313395 C 3.4756261 3.070634 3.4678164 3.1101 3.4607707 3.1501953 C 3.409061 3.4444595 3.4241221 4.356413 3.4804077 5.2730632 z M 9.625769 5.2730632 L 9.9208415 5.2730632 C 9.9258884 4.9784984 9.9203645 4.939153 9.8763997 4.8922078 C 9.8164798 4.8282919 9.7084659 4.7940081 9.6743449 4.8281291 C 9.6615249 4.8409541 9.6403826 5.0348718 9.6268026 5.2591105 C 9.6265453 5.2633582 9.6260323 5.2687582 9.625769 5.2730632 z M 0.9182902 0.69349772 L 0.85731201 0.75447591 L 0.79685059 0.8154541 L 0.79685059 1.4872477 L 0.79685059 2.1595581 L 0.85731201 2.2205363 C 0.89569037 2.2589142 0.94695913 2.2809977 0.99528809 2.2809977 C 1.0436173 2.2809977 1.0943684 2.2589153 1.1327474 2.2205363 C 1.1936218 2.1596615 1.1937256 2.1595681 1.1937256 1.6252238 L 1.1937256 1.0903727 L 1.7280599 1.0903727 C 2.2624039 1.0903727 2.2624975 1.0907862 2.3233724 1.0299113 C 2.4039213 0.94936203 2.4039213 0.83502523 2.3233724 0.75447591 L 2.2623942 0.69349772 L 1.5906006 0.69349772 L 0.9182902 0.69349772 z M 10.44329 0.69349772 L 10.382312 0.75447591 C 10.301762 0.83502524 10.301762 0.94936238 10.382312 1.0299113 C 10.443187 1.0907857 10.443281 1.0903727 10.977625 1.0903727 L 11.512476 1.0903727 L 11.512476 1.6252238 C 11.512476 2.1595678 11.512057 2.1596614 11.572937 2.2205363 C 11.61131 2.2589143 11.662583 2.2809977 11.710913 2.2809977 C 11.759246 2.2809977 11.809992 2.2589153 11.848372 2.2205363 L 11.909351 2.1595581 L 11.909351 1.4872477 L 11.909351 0.8154541 L 11.848372 0.75447591 L 11.787394 0.69349772 L 11.115601 0.69349772 L 10.44329 0.69349772 z M 4.365625 9.2433634 L 4.6612142 9.5265503 C 4.9621419 9.8145652 5.2492706 10.036368 5.4720174 10.153385 L 5.5960409 10.218498 L 6.3551676 10.218498 L 7.1142944 10.218498 L 7.235734 10.154419 C 7.4553008 10.038168 7.7440795 9.8140539 8.0444702 9.5265503 L 8.3400594 9.2433634 L 8.3323079 9.9234253 C 8.324748 10.565724 8.3212756 10.610924 8.2671956 10.745597 C 8.2008677 10.910759 8.0076595 11.134375 7.8527507 11.225155 C 7.7943947 11.259353 7.4417186 11.398336 7.0693359 11.53418 C 6.6969523 11.670024 6.3696117 11.780226 6.3417318 11.779126 C 6.2642318 11.776094 4.9742844 11.295965 4.8534505 11.225155 C 4.6983347 11.134251 4.5053705 10.91085 4.4390055 10.745597 C 4.3849216 10.610924 4.3809365 10.565724 4.3733765 9.9234253 L 4.365625 9.2433634 z M 0.99528809 10.218498 C 0.94695993 10.218498 0.89569097 10.241096 0.85731201 10.279476 L 0.79685059 10.340454 L 0.79685059 11.012248 L 0.79685059 11.684558 L 0.85731201 11.745536 L 0.9182902 11.805998 L 1.5906006 11.805998 L 2.2623942 11.805998 L 2.3233724 11.745536 C 2.4039213 11.664985 2.4039213 11.550651 2.3233724 11.470101 C 2.2624978 11.409231 2.2624042 11.409123 1.7280599 11.409123 L 1.1937256 11.409123 L 1.1937256 10.874788 C 1.1937256 10.340445 1.1936223 10.340356 1.1327474 10.279476 C 1.0943691 10.241106 1.043617 10.218498 0.99528809 10.218498 z M 11.710913 10.219014 C 11.662274 10.219014 11.613212 10.239201 11.572937 10.279476 C 11.512066 10.340351 11.512476 10.340444 11.512476 10.874788 L 11.512476 11.409123 L 10.977625 11.409123 C 10.443283 11.409123 10.443192 11.409231 10.382312 11.470101 C 10.343942 11.508485 10.321851 11.55923 10.321851 11.60756 C 10.321851 11.655884 10.343932 11.707156 10.382312 11.745536 L 10.44329 11.805998 L 11.115601 11.805998 L 11.787394 11.805998 L 11.848372 11.745536 L 11.909351 11.684558 L 11.909351 11.012248 L 11.909351 10.340454 L 11.848372 10.279476 C 11.808098 10.239201 11.759552 10.219014 11.710913 10.219014 z " /></g></svg>
